<svg width="40" height="40" viewBox="0 0 40 40" fill="none" xmlns="http://www.w3.org/2000/svg">
<rect width="40" height="40" rx="10" fill="#E17730"/>
<path fill-rule="evenodd" clip-rule="evenodd" d="M24.3926 14.3712C24.3933 13.2187 23.9372 12.1132 23.1247 11.2987C22.3122 10.4842 21.2101 10.0275 20.0616 10.0294H14.287C11.8956 10.0294 9.95606 11.9815 9.95606 14.3712V23.0677H20.0616C22.453 23.0677 24.3926 21.1156 24.3926 18.7259V14.3712ZM15.7308 15.8242V17.2729H14.2872V15.8242H15.7308ZM20.0618 17.2729V15.8242H18.6181V17.2729H20.0618Z" fill="white"/>
<path fill-rule="evenodd" clip-rule="evenodd" d="M18.3686 18.5146C17.444 19.4545 16.9249 20.73 16.9258 22.0598V27.0845C16.9258 29.8418 19.1329 32.0942 21.8541 32.0942H33.3535V22.0598C33.3535 19.3025 31.1465 17.0501 28.4252 17.0501H21.8541C20.5472 17.0479 19.2932 17.5748 18.3686 18.5146ZM31.7108 22.0597V30.4226H21.8542C20.0423 30.4207 18.5731 28.9281 18.5686 27.0845V22.0597C18.5677 21.1732 18.9138 20.3229 19.5303 19.6965C20.1467 19.0702 20.983 18.7194 21.8542 18.7216H28.4253C30.2371 18.7234 31.7063 20.2161 31.7108 22.0597ZM26.7825 23.7363H28.4253V25.4078H26.7825V23.7363ZM23.4968 23.7363H21.8541V25.4078H23.4968V23.7363Z" fill="white"/>
</svg>
