<svg width="31" height="26" viewBox="0 0 31 26" fill="none" xmlns="http://www.w3.org/2000/svg">
<rect x="16.416" y="24.8513" width="14.5607" height="0.856943" fill="#0862B9"/>
<path fill-rule="evenodd" clip-rule="evenodd" d="M16.416 21.4236C16.416 21.4236 21.5517 21.6444 24.118 21.8959C26.6844 22.1475 30.9767 22.8509 30.9767 22.8509V23.2803C30.9767 23.2803 26.6704 22.8569 24.118 22.6931C21.5656 22.5293 16.416 22.3461 16.416 22.3461V21.4236Z" fill="#0862B9"/>
<path fill-rule="evenodd" clip-rule="evenodd" d="M16.416 17.2817C16.416 17.2817 21.4892 17.9364 24.118 18.4664C26.7468 18.9963 30.9767 20.5408 30.9767 20.5408V20.9952C30.9767 20.9952 26.7054 19.5881 24.118 19.219C21.5306 18.8498 16.416 18.1776 16.416 18.1776V17.2817Z" fill="#0862B9"/>
<path fill-rule="evenodd" clip-rule="evenodd" d="M16.416 13.2827C16.416 13.2827 21.0846 14.2699 23.8119 15.0202C26.5393 15.7706 30.9767 18.2554 30.9767 18.2554V18.71C30.9767 18.71 26.6575 16.6574 23.912 15.8823C21.1666 15.1072 16.416 14.1791 16.416 14.1791V13.2827Z" fill="#0862B9"/>
<path fill-rule="evenodd" clip-rule="evenodd" d="M16.416 8.9978C16.416 8.9978 22.0296 10.781 24.9203 12.0525C27.811 13.324 30.9767 15.9723 30.9767 15.9723V16.4246C30.9767 16.4246 27.1122 13.7016 24.9203 12.8114C22.7285 11.9211 16.416 9.88969 16.416 9.88969V8.9978Z" fill="#0862B9"/>
<path fill-rule="evenodd" clip-rule="evenodd" d="M16.416 5.1416C16.416 5.1416 21.4295 6.82946 24.8207 8.74831C28.2118 10.6672 30.9767 13.5418 30.9767 13.5418V13.9967C30.9767 13.9967 26.8547 10.6231 24.6171 9.48001C22.3796 8.33691 16.416 6.03854 16.416 6.03854V5.1416Z" fill="#0862B9"/>
<path fill-rule="evenodd" clip-rule="evenodd" d="M16.416 0C16.416 0 21.3339 2.49419 24.7593 4.76791C26.4312 5.87767 28.1742 7.28869 29.6198 9.01894C30.1487 9.65203 30.9767 11.0518 30.9767 11.0518V11.9972C30.9767 11.9972 30.8058 11.4294 29.4268 9.79985C28.0477 8.17028 25.0151 6.08024 24.3609 5.68378C22.41 4.50152 16.416 1.70629 16.416 1.70629V0Z" fill="#0862B9"/>
<rect y="24.8513" width="14.1324" height="0.856943" fill="#E5730D"/>
<path fill-rule="evenodd" clip-rule="evenodd" d="M0 21.4236C0 21.4236 4.98461 21.6444 7.47548 21.8959C9.96635 22.1475 14.1324 22.8509 14.1324 22.8509V23.2803C14.1324 23.2803 9.95279 22.8569 7.47548 22.6931C4.99817 22.5293 0 22.3461 0 22.3461V21.4236Z" fill="#E5730D"/>
<path fill-rule="evenodd" clip-rule="evenodd" d="M0 17.4246C0 17.4246 4.92399 18.0541 7.47548 18.5636C10.027 19.0732 14.1324 20.5583 14.1324 20.5583V20.9952C14.1324 20.9952 9.98677 19.6423 7.47548 19.2873C4.96419 18.9323 0 18.2859 0 18.2859V17.4246Z" fill="#E5730D"/>
<path fill-rule="evenodd" clip-rule="evenodd" d="M0 13.5684C0 13.5684 4.53123 14.5295 7.1784 15.2601C9.82557 15.9907 14.1324 18.4102 14.1324 18.4102V18.8528C14.1324 18.8528 9.94022 16.8542 7.27554 16.0995C4.61086 15.3448 0 14.4412 0 14.4412V13.5684Z" fill="#E5730D"/>
<path fill-rule="evenodd" clip-rule="evenodd" d="M0 9.28345C0 9.28345 5.44852 11.0666 8.25419 12.3381C11.0599 13.6096 14.1324 16.258 14.1324 16.258V16.7103C14.1324 16.7103 10.3282 14.1803 8.25419 13.2133C6.18014 12.2464 0 10.1753 0 10.1753V9.28345Z" fill="#E5730D"/>
<path fill-rule="evenodd" clip-rule="evenodd" d="M0 5.42725C0 5.42725 4.86602 7.08788 8.15745 8.97578C11.4489 10.8637 14.1324 13.692 14.1324 13.692V14.1395C14.1324 14.1395 10.1193 10.8087 7.97171 9.59022C5.82415 8.37171 0 6.30972 0 6.30972V5.42725Z" fill="#E5730D"/>
<path fill-rule="evenodd" clip-rule="evenodd" d="M0 0.428467C0 0.428467 4.77325 2.86327 8.09789 5.08286C9.72058 6.16619 11.4124 7.54362 12.8154 9.23267C13.3288 9.85068 14.1324 11.2171 14.1324 11.2171V12.14C14.1324 12.14 13.9665 11.5858 12.6281 9.99499C11.2896 8.40421 8.34612 6.36394 7.71117 5.97692C5.81773 4.82281 0 2.09413 0 2.09413V0.428467Z" fill="#E5730D"/>
</svg>
