<svg width="60" height="60" viewBox="0 0 60 60" fill="none" xmlns="http://www.w3.org/2000/svg">
<path d="M28.42 15C19.9012 15 13 21.9022 13 30.42C13 38.9378 19.9022 45.84 28.42 45.84C36.9388 45.84 43.84 38.9378 43.84 30.42C43.84 21.9022 36.9378 15 28.42 15ZM35.9937 25.5642L33.4628 37.4903C33.2758 38.3359 32.7724 38.5409 32.0701 38.1429L28.2151 35.3017L26.3557 37.0924C26.1508 37.2973 25.9767 37.4714 25.5787 37.4714L25.8523 33.5478L32.9963 27.0933C33.3076 26.8197 32.9276 26.6645 32.5167 26.9381L23.6876 32.4962L19.8823 31.3084C19.0556 31.0477 19.0367 30.4817 20.0564 30.0837L34.9233 24.3505C35.6137 24.1018 36.2166 24.5186 35.9927 25.5632L35.9937 25.5642Z"/>
</svg>
