<svg width="132" height="28" viewBox="0 0 132 28" fill="none" xmlns="http://www.w3.org/2000/svg">
<path fill-rule="evenodd" clip-rule="evenodd" d="M39.8018 13.2917H42.2593V17.0642C42.2593 17.0642 48.7803 16.9964 49.058 17.0642C49.3357 17.1319 49.8735 17.5154 50.1796 17.9121C50.4858 18.3088 50.6717 19.1552 50.6717 19.1552V26.1075C50.6717 26.1075 50.4714 26.7234 50.1796 27.0346C49.8879 27.3459 49.058 27.8294 49.058 27.8294H39.8018V13.2917Z" fill="#1F4866"/>
<rect x="42.2188" y="19.4445" width="6.0636" height="6.22222" fill="white"/>
<rect x="95.2363" y="16.9556" width="11.5053" height="10.7333" rx="2.64444" fill="#1D4662"/>
<path fill-rule="evenodd" clip-rule="evenodd" d="M75.8018 13.2222H73.3442V16.9947C73.3442 16.9947 66.8232 16.927 66.5455 16.9947C66.2678 17.0624 65.73 17.4459 65.4239 17.8427C65.1177 18.2394 64.9318 19.0858 64.9318 19.0858V26.038C64.9318 26.038 65.1322 26.6539 65.4239 26.9652C65.7156 27.2764 66.5455 27.7599 66.5455 27.7599H75.8018V13.2222Z" fill="#1F4866"/>
<rect width="6.0636" height="6.22222" transform="matrix(-1 0 0 1 73.3848 19.375)" fill="white"/>
<path fill-rule="evenodd" clip-rule="evenodd" d="M119.024 13.2222H116.567V16.9947C116.567 16.9947 110.046 16.927 109.768 16.9947C109.491 17.0624 108.953 17.4459 108.647 17.8427C108.34 18.2394 108.154 19.0858 108.154 19.0858V26.038C108.154 26.038 108.355 26.6539 108.647 26.9652C108.938 27.2764 109.768 27.7599 109.768 27.7599H119.024V13.2222Z" fill="#1F4866"/>
<rect width="6.0636" height="6.22222" transform="matrix(-1 0 0 1 116.607 19.375)" fill="white"/>
<path fill-rule="evenodd" clip-rule="evenodd" d="M52.4878 16.8775H54.7611V25.3647H61.1868V16.8775H63.572L63.3996 25.937L61.8771 27.6235L54.7611 27.8294L52.4878 25.937V16.8775Z" fill="#1E4564"/>
<path fill-rule="evenodd" clip-rule="evenodd" d="M78.0801 27.7599H80.6793V17.8193L85.5906 23.718L90.9421 17.8193V27.9155H93.5226V14.1632H90.9421L85.5906 20.2841L80.6793 14.1632H78.0801V27.7599Z" fill="#1D4662"/>
<path fill-rule="evenodd" clip-rule="evenodd" d="M121.163 16.8V19.375H129.652V21.1432H121.163V25.831L122.968 27.7599H131.86V16.8H121.163Z" fill="#1D4662"/>
<rect x="123.533" y="23.4889" width="6.21908" height="1.86667" fill="white"/>
<rect x="98.0352" y="19.2889" width="6.0636" height="6.06667" fill="white"/>
<rect x="17.9541" y="27.0667" width="15.8587" height="0.933333" fill="#0862B9"/>
<path fill-rule="evenodd" clip-rule="evenodd" d="M17.9541 23.3333C17.9541 23.3333 23.5476 23.5738 26.3427 23.8478C29.1378 24.1218 33.8128 24.8878 33.8128 24.8878V25.3555C33.8128 25.3555 29.1226 24.8943 26.3427 24.716C23.5628 24.5376 17.9541 24.3381 17.9541 24.3381V23.3333Z" fill="#0862B9"/>
<path fill-rule="evenodd" clip-rule="evenodd" d="M17.9541 18.8222C17.9541 18.8222 23.4795 19.5352 26.3427 20.1124C29.2058 20.6896 33.8128 22.3718 33.8128 22.3718V22.8666C33.8128 22.8666 29.1607 21.3342 26.3427 20.9321C23.5247 20.5301 17.9541 19.7979 17.9541 19.7979V18.8222Z" fill="#0862B9"/>
<path fill-rule="evenodd" clip-rule="evenodd" d="M17.9541 14.4667C17.9541 14.4667 23.0388 15.5418 26.0093 16.359C28.9798 17.1763 33.8128 19.8826 33.8128 19.8826V20.3778C33.8128 20.3778 29.1085 18.1422 26.1183 17.298C23.1282 16.4538 17.9541 15.443 17.9541 15.443V14.4667Z" fill="#0862B9"/>
<path fill-rule="evenodd" clip-rule="evenodd" d="M17.9541 9.79999C17.9541 9.79999 24.0681 11.7421 27.2165 13.127C30.3649 14.5118 33.8128 17.3962 33.8128 17.3962V17.8889C33.8128 17.8889 29.6037 14.9231 27.2165 13.9535C24.8293 12.9838 17.9541 10.7714 17.9541 10.7714V9.79999Z" fill="#0862B9"/>
<path fill-rule="evenodd" clip-rule="evenodd" d="M17.9541 5.59998C17.9541 5.59998 23.4145 7.43829 27.108 9.52819C30.8014 11.6181 33.8128 14.749 33.8128 14.749V15.2444C33.8128 15.2444 29.3233 11.5701 26.8863 10.3251C24.4493 9.08012 17.9541 6.57687 17.9541 6.57687V5.59998Z" fill="#0862B9"/>
<path fill-rule="evenodd" clip-rule="evenodd" d="M17.9541 0C17.9541 0 23.3104 2.71652 27.0411 5.19294C28.862 6.40162 30.7605 7.93843 32.3349 9.82291C32.9109 10.5124 33.8128 12.037 33.8128 12.037V13.0667C33.8128 13.0667 33.6266 12.4483 32.1246 10.6734C30.6227 8.8986 27.3197 6.62225 26.6072 6.19044C24.4825 4.9028 17.9541 1.85839 17.9541 1.85839V0Z" fill="#0862B9"/>
<rect x="0.0742188" y="27.0667" width="15.3922" height="0.933333" fill="#E5730D"/>
<path fill-rule="evenodd" clip-rule="evenodd" d="M0.0742188 23.3333C0.0742188 23.3333 5.50317 23.5738 8.21608 23.8478C10.929 24.1218 15.4664 24.8878 15.4664 24.8878V25.3555C15.4664 25.3555 10.9142 24.8943 8.21608 24.716C5.51794 24.5376 0.0742188 24.3381 0.0742188 24.3381V23.3333Z" fill="#E5730D"/>
<path fill-rule="evenodd" clip-rule="evenodd" d="M0.0742188 18.9778C0.0742188 18.9778 5.43714 19.6634 8.21608 20.2184C10.995 20.7734 15.4664 22.3909 15.4664 22.3909V22.8667C15.4664 22.8667 10.9512 21.3932 8.21608 21.0066C5.48093 20.62 0.0742188 19.9159 0.0742188 19.9159V18.9778Z" fill="#E5730D"/>
<path fill-rule="evenodd" clip-rule="evenodd" d="M0.0742188 14.7778C0.0742188 14.7778 5.00938 15.8246 7.89252 16.6203C10.7757 17.4161 15.4664 20.0512 15.4664 20.0512V20.5333C15.4664 20.5333 10.9005 18.3565 7.99832 17.5346C5.0961 16.7126 0.0742188 15.7284 0.0742188 15.7284V14.7778Z" fill="#E5730D"/>
<path fill-rule="evenodd" clip-rule="evenodd" d="M0.0742188 10.1111C0.0742188 10.1111 6.00843 12.0532 9.06421 13.4381C12.12 14.8229 15.4664 17.7073 15.4664 17.7073V18.2C15.4664 18.2 11.3231 15.4444 9.06421 14.3913C6.80527 13.3381 0.0742188 11.0825 0.0742188 11.0825V10.1111Z" fill="#E5730D"/>
<path fill-rule="evenodd" clip-rule="evenodd" d="M0.0742188 5.91113C0.0742188 5.91113 5.37401 7.7198 8.95885 9.77599C12.5437 11.8322 15.4664 14.9126 15.4664 14.9126V15.4C15.4664 15.4 11.0956 11.7723 8.75655 10.4452C6.41755 9.11807 0.0742188 6.87227 0.0742188 6.87227V5.91113Z" fill="#E5730D"/>
<path fill-rule="evenodd" clip-rule="evenodd" d="M0.0742188 0.466675C0.0742188 0.466675 5.27297 3.11852 8.89397 5.53597C10.6613 6.71588 12.5039 8.21609 14.032 10.0557C14.5911 10.7288 15.4664 12.2171 15.4664 12.2171V13.2222C15.4664 13.2222 15.2858 12.6186 13.828 10.886C12.3702 9.1534 9.16434 6.93125 8.47278 6.50973C6.41056 5.25274 0.0742188 2.28082 0.0742188 2.28082V0.466675Z" fill="#E5730D"/>
</svg>
