<svg width="21" height="21" viewBox="0 0 21 21" fill="none" xmlns="http://www.w3.org/2000/svg">
<rect width="21" height="21" rx="1" fill="white"/>
<path d="M16.1528 15.498C16.1529 15.828 15.8977 16.1019 15.5686 16.125C15.2941 16.1438 15.0698 16.1539 14.8964 16.1539C9.34529 16.1539 4.8457 11.6541 4.8457 6.1026C4.8457 5.92922 4.85513 5.70495 4.8746 5.43042C4.8977 5.10124 5.17154 4.84604 5.50151 4.84619H7.72272C7.88415 4.84603 8.01941 4.96826 8.03555 5.12888C8.05 5.27337 8.06319 5.38833 8.07575 5.47565C8.20059 6.34693 8.45643 7.19432 8.83458 7.9891C8.89426 8.11474 8.85531 8.26488 8.74224 8.34529L7.38665 9.31399C8.21549 11.2454 9.75457 12.7845 11.6858 13.6134L12.6532 12.2603C12.7348 12.1462 12.8863 12.1068 13.0132 12.1667C13.8078 12.5441 14.6549 12.7993 15.5259 12.9237C15.6132 12.9362 15.7281 12.95 15.8713 12.9639C16.0317 12.9803 16.1536 13.1155 16.1534 13.2767L16.1528 15.498Z" fill="#B95D20"/>
</svg>
